<svg width="22" height="23" viewBox="0 0 22 23" fill="none" xmlns="http://www.w3.org/2000/svg">
<path id="linkedin" d="M20.35 2.81292e-05H1.65C0.770002 2.81292e-05 1.67847e-06 0.691289 1.67847e-06 1.61303V21.3152C1.67847e-06 22.2369 0.770002 22.9282 1.65 22.9282H20.35C21.23 22.9282 22 22.2369 22 21.3152V1.61303C22 0.806506 21.23 2.81292e-05 20.35 2.81292e-05ZM6.49 19.7021H3.19V8.75651H6.49V19.7021ZM4.84 7.14344C3.74 7.14344 2.97 6.22176 2.97 5.1848C2.97 4.14785 3.85 3.2261 4.84 3.2261C5.83 3.2261 6.71 4.14785 6.71 5.1848C6.82 6.33697 5.94 7.14344 4.84 7.14344ZM18.7 19.7021H15.4V14.4022C15.4 13.1348 15.4 11.5217 13.75 11.5217C12.1 11.5217 11.77 12.9044 11.77 14.4022V19.8173H8.47001V8.8717H11.55V10.3696C11.99 9.44784 13.09 8.64132 14.63 8.64132C17.93 8.64132 18.59 10.9457 18.59 13.8261V19.7021H18.7Z" fill="white"/>
</svg>
