<svg width="26" height="22" viewBox="0 0 26 22" fill="none" xmlns="http://www.w3.org/2000/svg">
<path id="twitter" fill-rule="evenodd" clip-rule="evenodd" d="M26 2.61533C25.1034 3.02827 24.0788 3.30353 22.9261 3.44117C23.9507 2.75294 24.8473 1.65175 25.2315 0.412924C24.2069 1.10116 23.0542 1.5141 21.9015 1.78939C21.0049 0.688218 19.5961 0 18.0591 0C15.1133 0 12.8079 2.47764 12.8079 5.50588C12.8079 5.91882 12.8079 6.33179 12.936 6.74473C8.58128 6.46944 4.73892 4.26707 2.04926 0.963545C1.53695 1.78943 1.28079 2.75296 1.28079 3.71648C1.28079 5.64354 2.17734 7.29525 3.58621 8.39643C2.68965 8.39643 1.92118 8.12114 1.15271 7.7082C1.15271 7.7082 1.15271 7.70825 1.15271 7.84589C1.15271 10.5988 2.94581 12.8012 5.37931 13.3518C4.99507 13.4894 4.48276 13.4894 3.97045 13.4894C3.58621 13.4894 3.33005 13.4894 2.94581 13.3518C3.58621 15.5541 5.50739 17.2059 7.81281 17.2059C6.01971 18.72 3.71429 19.5459 1.28079 19.5459C0.896556 19.5459 0.38424 19.5458 3.90866e-06 19.4082C2.30542 21.0599 5.12315 21.8859 8.06896 21.8859C17.6749 21.8859 23.0542 13.3518 23.0542 6.0565C23.0542 5.78121 23.0542 5.50591 23.0542 5.36826C24.4631 4.68003 25.3596 3.7165 26 2.61533Z" fill="white"/>
</svg>
